<svg width="75" height="75" viewBox="0 0 75 75" fill="none" xmlns="http://www.w3.org/2000/svg">
<g clip-path="url(#clip0_3415_284950)">
<path d="M35.1619 2.91448C36.4497 3.76834 38.5569 3.76834 39.8427 2.91448L43.2432 0.655105C44.5302 -0.199925 46.2597 0.169069 47.0874 1.4741L49.2747 4.92366C50.1023 6.22796 52.0261 7.08445 53.5492 6.82678L57.5752 6.14461C59.0988 5.88665 60.5305 6.92566 60.7548 8.45423L61.3519 12.4874C61.5783 14.0162 62.9861 15.5838 64.4831 15.9693L68.4338 16.9883C69.9312 17.3753 70.8151 18.9097 70.3992 20.3978L69.305 24.3188C68.8895 25.8068 69.5393 27.8111 70.7502 28.7719L73.9572 31.3159C75.1677 32.2767 75.3514 34.0358 74.3663 35.2272L71.7627 38.37C70.7779 39.5602 70.5578 41.6551 71.273 43.0245L73.1638 46.6392C73.8792 48.0094 73.3337 49.6925 71.9496 50.3794L68.2922 52.1948C66.908 52.8821 65.8558 54.7068 65.9522 56.2489L66.2049 60.3202C66.3028 61.8615 65.1174 63.1782 63.5727 63.2441L59.4958 63.4166C57.9523 63.4827 56.2487 64.7217 55.709 66.1707L54.2907 69.9916C53.7511 71.4409 52.1349 72.1617 50.6982 71.5932L46.8999 70.0918C45.464 69.5228 43.4034 69.9605 42.3219 71.0649L39.4693 73.9786C38.3874 75.0822 36.6186 75.0822 35.5359 73.98L32.6787 71.0644C31.5965 69.9611 29.5359 69.5236 28.0992 70.0921L24.3028 71.5935C22.8662 72.1625 21.2499 71.4416 20.7114 69.9919L19.2898 66.171C18.7509 64.7224 17.0472 63.483 15.503 63.4169L11.4275 63.2444C9.88283 63.1783 8.69895 61.8617 8.79533 60.3205L9.05036 56.2491C9.14631 54.7075 8.09265 52.8823 6.70881 52.195L3.05256 50.3797C1.66887 49.6926 1.12175 48.01 1.83762 46.6395L3.72844 43.0248C4.44387 41.6553 4.22385 39.5606 3.23757 38.3715L0.633811 35.2245C-0.351736 34.0351 -0.167166 32.276 1.04294 31.3152L4.25066 28.7712C5.46076 27.8104 6.11145 25.8072 5.69631 24.3185L4.59944 20.3959C4.18401 18.9079 5.06819 17.3745 6.56408 16.9899L10.5177 15.9687C12.0136 15.5836 13.4232 14.0161 13.6489 12.4872L14.2456 8.45408C14.4718 6.92551 15.9028 5.8865 17.4259 6.14446L21.4523 6.82664C22.9759 7.0843 24.8994 6.22781 25.7259 4.92351L27.9121 1.47395C28.7386 0.168923 30.4693 -0.200071 31.7573 0.654958L35.1619 2.91448Z" fill="#CCEFE3"/>
<path d="M61.7651 37.5409C61.7651 50.9423 50.9002 61.806 37.5 61.806C24.1005 61.806 13.2356 50.9423 13.2356 37.5409C13.2356 24.1436 24.1 13.2795 37.5 13.2795C50.9002 13.2795 61.7651 24.1436 61.7651 37.5409Z" fill="#00C483"/>
<path d="M33.4547 48.876L23.7422 39.163L26.978 35.9257L33.4547 42.4012L48.0227 27.8313L51.2586 31.0698L33.4547 48.876Z" fill="white"/>
</g>
<defs>
<clipPath id="clip0_3415_284950">
<rect width="75" height="75" fill="white"/>
</clipPath>
</defs>
</svg>
