<svg width="20" height="20" viewBox="0 0 20 20" fill="none" xmlns="http://www.w3.org/2000/svg">
<rect width="20" height="20" fill="#F5F5F5"/>
<g id="nav 2">
<rect x="-36.5" y="-181.5" width="257" height="921" rx="16.5" fill="#FAFBFC"/>
<rect x="-36.5" y="-181.5" width="257" height="921" rx="16.5" stroke="#D9D9D9"/>
<g id="Navigation">
<g id="Link">
<g id="Icon / User 1" clip-path="url(#clip0_0_1)">
<g id="ic:outline-people-alt">
<path id="Vector" d="M13.8916 10.9416C15.0333 11.7166 15.8333 12.7666 15.8333 14.1666V16.6666H19.1666V14.1666C19.1666 12.35 16.1916 11.275 13.8916 10.9416ZM12.4999 9.99998C14.3416 9.99998 15.8333 8.50831 15.8333 6.66665C15.8333 4.82498 14.3416 3.33331 12.4999 3.33331C12.1083 3.33331 11.7416 3.41665 11.3916 3.53331C12.1087 4.42016 12.4999 5.52615 12.4999 6.66665C12.4999 7.80714 12.1087 8.91313 11.3916 9.79998C11.7416 9.91665 12.1083 9.99998 12.4999 9.99998ZM7.49992 9.99998C9.34158 9.99998 10.8333 8.50831 10.8333 6.66665C10.8333 4.82498 9.34158 3.33331 7.49992 3.33331C5.65825 3.33331 4.16658 4.82498 4.16658 6.66665C4.16658 8.50831 5.65825 9.99998 7.49992 9.99998ZM7.49992 4.99998C8.41658 4.99998 9.16658 5.74998 9.16658 6.66665C9.16658 7.58331 8.41658 8.33331 7.49992 8.33331C6.58325 8.33331 5.83325 7.58331 5.83325 6.66665C5.83325 5.74998 6.58325 4.99998 7.49992 4.99998ZM7.49992 10.8333C5.27492 10.8333 0.833252 11.95 0.833252 14.1666V16.6666H14.1666V14.1666C14.1666 11.95 9.72492 10.8333 7.49992 10.8333ZM12.4999 15H2.49992V14.175C2.66659 13.575 5.24992 12.5 7.49992 12.5C9.74992 12.5 12.3333 13.575 12.4999 14.1666V15Z" fill="#5C5E64"/>
</g>
</g>
</g>
</g>
</g>
<defs>
<clipPath id="clip0_0_1">
<rect width="20" height="20" fill="white"/>
</clipPath>
</defs>
</svg>
